<svg id="그룹_2541" data-name="그룹 2541" xmlns="http://www.w3.org/2000/svg" xmlns:xlink="http://www.w3.org/1999/xlink" width="411.586" height="416.573" viewBox="0 0 411.586 416.573">
  <defs>
    <clipPath id="clip-path">
      <rect id="사각형_2047" data-name="사각형 2047" width="411.586" height="416.573" fill="none"/>
    </clipPath>
    <clipPath id="clip-path-6">
      <rect id="사각형_2067" data-name="사각형 2067" width="12.181" height="14.363" transform="translate(75.878 391.031)" fill="none"/>
    </clipPath>
  </defs>
  <g id="그룹_2526" data-name="그룹 2526">
    <g id="그룹_2525" data-name="그룹 2525" clip-path="url(#clip-path)">
      <path id="패스_1445" data-name="패스 1445" d="M34.221,16.2a4.106,4.106,0,0,0,1.663,1.924,5.3,5.3,0,0,0,2.782.675,7.536,7.536,0,0,0,2.848-.519,5.953,5.953,0,0,0,2.326-1.769l2.626,2a9.4,9.4,0,0,1-7.384,3.458,10.716,10.716,0,0,1-3.588-.585,8.735,8.735,0,0,1-2.9-1.664,7.723,7.723,0,0,1-1.951-2.626,8.162,8.162,0,0,1-.714-3.47,8.441,8.441,0,0,1,.675-3.419,8.031,8.031,0,0,1,1.846-2.653,8.31,8.31,0,0,1,2.77-1.716,9.642,9.642,0,0,1,3.47-.61,9.045,9.045,0,0,1,3.341.6,8.155,8.155,0,0,1,2.639,1.65A7.855,7.855,0,0,1,46.453,10a8.651,8.651,0,0,1,.741,3.211Zm4.653-7.8a5.047,5.047,0,0,0-3.652,1.287,5.055,5.055,0,0,0-1.47,3.5l9.36-2.235A4.342,4.342,0,0,0,41.345,9a5.059,5.059,0,0,0-2.471-.6" fill="#210c06"/>
      <path id="패스_1446" data-name="패스 1446" d="M66.2,6.032h3.588V21.19H66.305l-.5-2a5.445,5.445,0,0,1-1.144,1.079,7.3,7.3,0,0,1-1.469.806,8.862,8.862,0,0,1-1.651.494,7.508,7.508,0,0,1-1.69.143,7.7,7.7,0,0,1-3-.65,8.233,8.233,0,0,1-2.5-1.69,7.827,7.827,0,0,1-1.7-2.535,8.06,8.06,0,0,1-.624-3.185,8.106,8.106,0,0,1,4.888-7.527,7.231,7.231,0,0,1,2.912-.611,8.959,8.959,0,0,1,3.406.624,6.288,6.288,0,0,1,2.5,1.768ZM60.662,18.538a4.669,4.669,0,0,0,1.769-.338,4.119,4.119,0,0,0,1.442-.975,4.585,4.585,0,0,0,.962-1.547,5.6,5.6,0,0,0,.351-2.028,5.751,5.751,0,0,0-.351-2.08,4.6,4.6,0,0,0-.962-1.547,4.132,4.132,0,0,0-1.442-.975,4.8,4.8,0,0,0-3.537,0,4.136,4.136,0,0,0-1.443.975,4.62,4.62,0,0,0-.962,1.547,5.752,5.752,0,0,0-.35,2.08,5.6,5.6,0,0,0,.35,2.028,4.6,4.6,0,0,0,.962,1.547,4.123,4.123,0,0,0,1.443.975,4.66,4.66,0,0,0,1.768.338" fill="#210c06"/>
      <path id="패스_1447" data-name="패스 1447" d="M80.11,7.722a3.578,3.578,0,0,1,1.508-1.248,5.383,5.383,0,0,1,2.262-.441H87.1L86.454,9.2H83.2a2.278,2.278,0,0,0-1.131.3,3.167,3.167,0,0,0-.936.806,4.068,4.068,0,0,0-.637,1.157,3.966,3.966,0,0,0-.234,1.353v8.372H76.158V6.033h3.588Z" fill="#210c06"/>
      <path id="패스_1448" data-name="패스 1448" d="M95.32,7.618a4.459,4.459,0,0,1,1.026-.884,7.419,7.419,0,0,1,1.314-.663,8.3,8.3,0,0,1,1.456-.416,7.75,7.75,0,0,1,1.456-.143,7.957,7.957,0,0,1,2.678.442,6.911,6.911,0,0,1,2.184,1.235A5.653,5.653,0,0,1,106.9,9.113a5.816,5.816,0,0,1,.533,2.509V21.19h-4.108V13.026a4.664,4.664,0,0,0-.988-3.315,3.576,3.576,0,0,0-2.7-1.028,3.727,3.727,0,0,0-2.586,1,4.823,4.823,0,0,0-1.443,2.769V21.19H91.5V6.032h3.484Z" fill="#210c06"/>
      <path id="패스_1449" data-name="패스 1449" d="M118.433,3.952h-4.107V0h4.107Zm0,17.238h-4.107V6.032h4.107Z" fill="#210c06"/>
      <path id="패스_1450" data-name="패스 1450" d="M129.275,7.618a4.486,4.486,0,0,1,1.027-.884,7.41,7.41,0,0,1,1.313-.663,8.322,8.322,0,0,1,1.456-.416,7.758,7.758,0,0,1,1.456-.143,7.963,7.963,0,0,1,2.679.442,6.906,6.906,0,0,1,2.183,1.235,5.641,5.641,0,0,1,1.469,1.924,5.816,5.816,0,0,1,.533,2.509V21.19h-4.108V13.026a4.669,4.669,0,0,0-.987-3.315,3.58,3.58,0,0,0-2.705-1.028,3.729,3.729,0,0,0-2.587,1,4.829,4.829,0,0,0-1.443,2.769V21.19h-4.107V6.032h3.483Z" fill="#210c06"/>
      <path id="패스_1451" data-name="패스 1451" d="M164.479,20.54a8.322,8.322,0,0,1-.61,3.263,7.245,7.245,0,0,1-1.7,2.47,7.749,7.749,0,0,1-2.6,1.6,9.637,9.637,0,0,1-3.3.6,12.02,12.02,0,0,1-3.184-.311,9,9,0,0,1-2.718-1.119,6.482,6.482,0,0,1-1.976-1.936,6.093,6.093,0,0,1-.935-2.821h4.159a2.857,2.857,0,0,0,1.209,2.261,4.819,4.819,0,0,0,2.847.781,5.917,5.917,0,0,0,1.873-.286,3.925,3.925,0,0,0,2.482-2.379,5.89,5.89,0,0,0,.352-2.146V18.695a5.717,5.717,0,0,1-2.5,1.884,8.9,8.9,0,0,1-3.328.612,7.956,7.956,0,0,1-3-.573,7.7,7.7,0,0,1-2.5-1.612,7.609,7.609,0,0,1-1.7-2.47,7.779,7.779,0,0,1-.624-3.147,7.821,7.821,0,0,1,.651-3.224,7.636,7.636,0,0,1,1.741-2.483,8.1,8.1,0,0,1,2.5-1.6,7.692,7.692,0,0,1,2.912-.571,8.978,8.978,0,0,1,3.406.623,6.292,6.292,0,0,1,2.5,1.77l.468-1.872h3.588Zm-9.126-2.522a4.649,4.649,0,0,0,1.769-.338,4.292,4.292,0,0,0,1.442-.948,4.428,4.428,0,0,0,.962-1.47,4.9,4.9,0,0,0,.351-1.873,5.044,5.044,0,0,0-.351-1.923A4.434,4.434,0,0,0,158.564,10a4.309,4.309,0,0,0-1.442-.949,4.8,4.8,0,0,0-3.537,0,4.314,4.314,0,0,0-1.443.949,4.45,4.45,0,0,0-.962,1.469,5.044,5.044,0,0,0-.35,1.923,4.895,4.895,0,0,0,.35,1.873,4.444,4.444,0,0,0,.962,1.47,4.3,4.3,0,0,0,1.443.948,4.641,4.641,0,0,0,1.768.338" fill="#210c06"/>
      <path id="패스_1452" data-name="패스 1452" d="M44.1,37.032h3.588V52.19H44.2l-.495-2a5.439,5.439,0,0,1-1.143,1.079,7.323,7.323,0,0,1-1.469.806,8.863,8.863,0,0,1-1.651.494,7.516,7.516,0,0,1-1.691.143,7.71,7.71,0,0,1-3-.65,8.258,8.258,0,0,1-2.5-1.69,7.841,7.841,0,0,1-1.7-2.535,8.18,8.18,0,0,1,4.264-10.712,7.224,7.224,0,0,1,2.912-.611,8.962,8.962,0,0,1,3.406.624A6.277,6.277,0,0,1,43.631,38.9ZM38.562,49.538A4.66,4.66,0,0,0,40.33,49.2a4.123,4.123,0,0,0,1.443-.975,4.6,4.6,0,0,0,.962-1.547,5.6,5.6,0,0,0,.35-2.028,5.752,5.752,0,0,0-.35-2.08,4.62,4.62,0,0,0-.962-1.547,4.136,4.136,0,0,0-1.443-.975,4.8,4.8,0,0,0-3.537,0,4.132,4.132,0,0,0-1.442.975,4.589,4.589,0,0,0-.962,1.547,5.751,5.751,0,0,0-.351,2.08,5.6,5.6,0,0,0,.351,2.028,4.569,4.569,0,0,0,.962,1.547,4.119,4.119,0,0,0,1.442.975,4.665,4.665,0,0,0,1.769.338" fill="#210c06"/>
      <path id="패스_1453" data-name="패스 1453" d="M57.88,38.618a4.486,4.486,0,0,1,1.027-.884,7.409,7.409,0,0,1,1.313-.663,8.322,8.322,0,0,1,1.456-.416,7.758,7.758,0,0,1,1.456-.143,7.963,7.963,0,0,1,2.679.442,6.906,6.906,0,0,1,2.183,1.235,5.641,5.641,0,0,1,1.469,1.924A5.816,5.816,0,0,1,70,42.622V52.19H65.888V44.026a4.669,4.669,0,0,0-.987-3.315A3.58,3.58,0,0,0,62.2,39.683a3.729,3.729,0,0,0-2.587,1,4.829,4.829,0,0,0-1.443,2.769V52.19H54.059V37.032h3.483Z" fill="#210c06"/>
      <path id="패스_1454" data-name="패스 1454" d="M89.236,37.032h3.588V52.19H89.34l-.495-2A5.439,5.439,0,0,1,87.7,51.267a7.323,7.323,0,0,1-1.469.806,8.863,8.863,0,0,1-1.651.494,7.516,7.516,0,0,1-1.691.143,7.71,7.71,0,0,1-3-.65,8.258,8.258,0,0,1-2.5-1.69,7.841,7.841,0,0,1-1.7-2.535,8.18,8.18,0,0,1,4.264-10.712,7.224,7.224,0,0,1,2.912-.611,8.962,8.962,0,0,1,3.406.624A6.277,6.277,0,0,1,88.767,38.9ZM83.7,49.538a4.66,4.66,0,0,0,1.768-.338,4.123,4.123,0,0,0,1.443-.975,4.6,4.6,0,0,0,.962-1.547,5.6,5.6,0,0,0,.35-2.028,5.752,5.752,0,0,0-.35-2.08,4.62,4.62,0,0,0-.962-1.547,4.136,4.136,0,0,0-1.443-.975,4.8,4.8,0,0,0-3.537,0,4.132,4.132,0,0,0-1.442.975,4.589,4.589,0,0,0-.962,1.547,5.751,5.751,0,0,0-.351,2.08,5.6,5.6,0,0,0,.351,2.028,4.569,4.569,0,0,0,.962,1.547,4.119,4.119,0,0,0,1.442.975,4.665,4.665,0,0,0,1.769.338" fill="#210c06"/>
      <path id="패스_1455" data-name="패스 1455" d="M115.912,51.54a8.322,8.322,0,0,1-.61,3.263,7.246,7.246,0,0,1-1.7,2.47,7.749,7.749,0,0,1-2.6,1.6,9.637,9.637,0,0,1-3.3.6,12.02,12.02,0,0,1-3.184-.311,9,9,0,0,1-2.718-1.119A6.482,6.482,0,0,1,99.818,56.1a6.093,6.093,0,0,1-.935-2.821h4.159a2.857,2.857,0,0,0,1.209,2.261,4.819,4.819,0,0,0,2.847.781,5.917,5.917,0,0,0,1.873-.286,3.925,3.925,0,0,0,2.482-2.379,5.89,5.89,0,0,0,.352-2.146V49.695a5.717,5.717,0,0,1-2.5,1.884,8.9,8.9,0,0,1-3.328.612,7.956,7.956,0,0,1-3-.573,7.705,7.705,0,0,1-2.5-1.612,7.609,7.609,0,0,1-1.7-2.47,8.278,8.278,0,0,1,.027-6.371,7.636,7.636,0,0,1,1.741-2.483,8.1,8.1,0,0,1,2.5-1.6,7.692,7.692,0,0,1,2.912-.571,8.978,8.978,0,0,1,3.406.623,6.292,6.292,0,0,1,2.5,1.77l.468-1.872h3.588Zm-9.126-2.522a4.649,4.649,0,0,0,1.769-.338A4.292,4.292,0,0,0,110,47.732a4.429,4.429,0,0,0,.962-1.47,4.9,4.9,0,0,0,.351-1.873,5.044,5.044,0,0,0-.351-1.923A4.434,4.434,0,0,0,110,41a4.309,4.309,0,0,0-1.442-.949,4.8,4.8,0,0,0-3.537,0,4.314,4.314,0,0,0-1.443.949,4.45,4.45,0,0,0-.962,1.469,5.044,5.044,0,0,0-.35,1.923,4.895,4.895,0,0,0,.35,1.873,4.444,4.444,0,0,0,.962,1.47,4.3,4.3,0,0,0,1.443.948,4.641,4.641,0,0,0,1.768.338" fill="#210c06"/>
      <path id="패스_1456" data-name="패스 1456" d="M125.533,47.2a4.106,4.106,0,0,0,1.663,1.924,5.3,5.3,0,0,0,2.782.675,7.536,7.536,0,0,0,2.848-.519,5.953,5.953,0,0,0,2.326-1.769l2.626,2a9.4,9.4,0,0,1-7.384,3.458,10.72,10.72,0,0,1-3.588-.585,8.735,8.735,0,0,1-2.9-1.664,7.723,7.723,0,0,1-1.951-2.626,8.162,8.162,0,0,1-.714-3.47,8.441,8.441,0,0,1,.675-3.419,8.031,8.031,0,0,1,1.846-2.653,8.31,8.31,0,0,1,2.77-1.716,9.642,9.642,0,0,1,3.47-.61,9.045,9.045,0,0,1,3.341.6,8.155,8.155,0,0,1,2.639,1.65A7.854,7.854,0,0,1,137.765,41a8.651,8.651,0,0,1,.741,3.211Zm4.653-7.8a4.731,4.731,0,0,0-5.122,4.783l9.36-2.235A4.341,4.341,0,0,0,132.657,40a5.059,5.059,0,0,0-2.471-.6" fill="#210c06"/>
      <path id="패스_1457" data-name="패스 1457" d="M157.2,52.19h-4.108v-9.2a4.775,4.775,0,0,0-.143-1.131,3.455,3.455,0,0,0-.455-1.066,2.6,2.6,0,0,0-.78-.781,1.986,1.986,0,0,0-1.092-.3,1.731,1.731,0,0,0-.962.286,3.166,3.166,0,0,0-.793.741,4.374,4.374,0,0,0-.585,1.026,4.691,4.691,0,0,0-.312,1.118V52.19h-4.108V37.032h3.588l.338,1.17a4.368,4.368,0,0,1,2.027-1.314,8.723,8.723,0,0,1,2.288-.377,4.433,4.433,0,0,1,2.146.56,5.38,5.38,0,0,1,1.781,1.6,4.874,4.874,0,0,1,1.092-1.1,5.045,5.045,0,0,1,1.248-.663,5.914,5.914,0,0,1,1.378-.313,14.417,14.417,0,0,1,1.508-.078,4.478,4.478,0,0,1,1.975.455,5.137,5.137,0,0,1,1.652,1.287,6.229,6.229,0,0,1,1.13,2.016,7.808,7.808,0,0,1,.416,2.612V52.19h-4.107v-9.2a4.775,4.775,0,0,0-.143-1.131,3.689,3.689,0,0,0-.442-1.066,2.425,2.425,0,0,0-.78-.781,2.153,2.153,0,0,0-1.157-.3,2.307,2.307,0,0,0-1.729.78,3.5,3.5,0,0,0-.871,2.158Z" fill="#210c06"/>
      <path id="패스_1458" data-name="패스 1458" d="M176.051,47.2a4.106,4.106,0,0,0,1.663,1.924,5.3,5.3,0,0,0,2.782.675,7.536,7.536,0,0,0,2.848-.519,5.953,5.953,0,0,0,2.326-1.769l2.626,2a9.4,9.4,0,0,1-7.384,3.458,10.716,10.716,0,0,1-3.588-.585,8.735,8.735,0,0,1-2.9-1.664,7.722,7.722,0,0,1-1.951-2.626,8.162,8.162,0,0,1-.714-3.47,8.441,8.441,0,0,1,.675-3.419,8.031,8.031,0,0,1,1.846-2.653,8.31,8.31,0,0,1,2.77-1.716,9.642,9.642,0,0,1,3.47-.61,9.045,9.045,0,0,1,3.341.6,8.155,8.155,0,0,1,2.639,1.65A7.855,7.855,0,0,1,188.283,41a8.651,8.651,0,0,1,.741,3.211Zm4.653-7.8a4.731,4.731,0,0,0-5.122,4.783l9.36-2.235A4.342,4.342,0,0,0,183.175,40a5.059,5.059,0,0,0-2.471-.6" fill="#210c06"/>
      <path id="패스_1459" data-name="패스 1459" d="M198.2,38.618a4.486,4.486,0,0,1,1.027-.884,7.409,7.409,0,0,1,1.313-.663A8.322,8.322,0,0,1,202,36.655a7.758,7.758,0,0,1,1.456-.143,7.963,7.963,0,0,1,2.679.442,6.905,6.905,0,0,1,2.183,1.235,5.641,5.641,0,0,1,1.469,1.924,5.816,5.816,0,0,1,.533,2.509V52.19H206.21V44.026a4.669,4.669,0,0,0-.987-3.315,3.58,3.58,0,0,0-2.705-1.028,3.729,3.729,0,0,0-2.587,1,4.829,4.829,0,0,0-1.443,2.769V52.19h-4.107V37.032h3.483Z" fill="#210c06"/>
      <path id="패스_1460" data-name="패스 1460" d="M222.564,37.032h3.8V40.2h-3.8V47.38a1.7,1.7,0,0,0,.4,1.209,1.619,1.619,0,0,0,1.235.429h2.418V52.19h-4.134a4.7,4.7,0,0,1-1.573-.261,3.721,3.721,0,0,1-1.287-.753,3.5,3.5,0,0,1-.858-1.209,4.026,4.026,0,0,1-.312-1.625V40.2h-3.068V37.032h3.068v-5.3h4.108Z" fill="#210c06"/>
      <path id="패스_1461" data-name="패스 1461" d="M42.28,81.11a4.894,4.894,0,0,1-2.2,1.586,7.948,7.948,0,0,1-2.769.494,7.394,7.394,0,0,1-2.678-.481,6.972,6.972,0,0,1-2.184-1.327,6.055,6.055,0,0,1-2-4.562V68.032h4.108v7.643a4.665,4.665,0,0,0,.988,3.316,3.579,3.579,0,0,0,2.7,1.027,3.757,3.757,0,0,0,2.587-.988A4.678,4.678,0,0,0,42.28,76.4V68.032h4.108V82.54a9.164,9.164,0,0,1-.546,3.262,7.089,7.089,0,0,1-1.547,2.471A6.876,6.876,0,0,1,41.9,89.859a8.943,8.943,0,0,1-3.081.61,10.778,10.778,0,0,1-2.977-.3,7.41,7.41,0,0,1-2.509-1.119A6.381,6.381,0,0,1,31.529,87.1a6.588,6.588,0,0,1-.871-2.821h4.16a3.2,3.2,0,0,0,.975,2.262,3.517,3.517,0,0,0,2.431.78,3.73,3.73,0,0,0,2.951-1.261,5.214,5.214,0,0,0,1.1-3.55v-1.4Z" fill="#210c06"/>
      <path id="패스_1462" data-name="패스 1462" d="M63.418,71.88A7.83,7.83,0,0,0,61.247,70.8a7.209,7.209,0,0,0-2.171-.377q-2.6,0-2.6,1.508a1.378,1.378,0,0,0,.441,1.027,3.7,3.7,0,0,0,1.69.715,13.16,13.16,0,0,1,5.071,2.08A3.993,3.993,0,0,1,65.29,79.03a4.724,4.724,0,0,1-.48,2.184,4.287,4.287,0,0,1-1.339,1.547,6.029,6.029,0,0,1-2.068.91,11.228,11.228,0,0,1-2.691.3,11.443,11.443,0,0,1-3.679-.559,12.341,12.341,0,0,1-3.106-1.573l1.481-2.886a8.13,8.13,0,0,0,2.21,1.326,6.932,6.932,0,0,0,2.626.5,4.763,4.763,0,0,0,2.315-.391,1.412,1.412,0,0,0,.624-1.3,1.5,1.5,0,0,0-.715-1.274A6.88,6.88,0,0,0,58.4,76.95a23.858,23.858,0,0,1-2.782-.91,7.232,7.232,0,0,1-1.858-1.053,3.627,3.627,0,0,1-1.054-1.352,4.438,4.438,0,0,1-.338-1.807,4,4,0,0,1,.443-1.885,4.173,4.173,0,0,1,1.26-1.443,6.171,6.171,0,0,1,1.963-.923,9.307,9.307,0,0,1,2.548-.325,12.094,12.094,0,0,1,1.963.144,9.427,9.427,0,0,1,1.612.4,8.618,8.618,0,0,1,1.365.611,12.625,12.625,0,0,1,1.2.767Z" fill="#210c06"/>
      <path id="패스_1463" data-name="패스 1463" d="M76,68.032h3.8V71.2H76V78.38a1.7,1.7,0,0,0,.4,1.209,1.619,1.619,0,0,0,1.235.429h2.418V83.19H75.924a4.7,4.7,0,0,1-1.573-.261,3.721,3.721,0,0,1-1.287-.753,3.5,3.5,0,0,1-.858-1.209,4.026,4.026,0,0,1-.312-1.625V71.2H68.826V68.032h3.068v-5.3H76Z" fill="#210c06"/>
      <path id="패스_1464" data-name="패스 1464" d="M88.638,78.2A4.114,4.114,0,0,0,90.3,80.122a5.3,5.3,0,0,0,2.782.675,7.531,7.531,0,0,0,2.847-.519,5.949,5.949,0,0,0,2.327-1.769l2.626,2A9.4,9.4,0,0,1,93.5,83.969a10.716,10.716,0,0,1-3.588-.585,8.75,8.75,0,0,1-2.9-1.664,7.72,7.72,0,0,1-1.95-2.626,8.162,8.162,0,0,1-.715-3.47,8.458,8.458,0,0,1,.675-3.419,8.048,8.048,0,0,1,1.847-2.653,8.3,8.3,0,0,1,2.769-1.716,9.646,9.646,0,0,1,3.47-.61,9.051,9.051,0,0,1,3.342.6,8.155,8.155,0,0,1,2.639,1.65A7.87,7.87,0,0,1,100.871,72a8.65,8.65,0,0,1,.74,3.211Zm4.654-7.8a4.73,4.73,0,0,0-5.122,4.783l9.359-2.235A4.336,4.336,0,0,0,95.762,71a5.055,5.055,0,0,0-2.47-.6" fill="#210c06"/>
      <path id="패스_1465" data-name="패스 1465" d="M120.305,83.19H116.2v-9.2a4.778,4.778,0,0,0-.144-1.131,3.455,3.455,0,0,0-.455-1.066,2.594,2.594,0,0,0-.78-.781,1.986,1.986,0,0,0-1.092-.3,1.734,1.734,0,0,0-.962.286,3.183,3.183,0,0,0-.793.741,4.445,4.445,0,0,0-.585,1.026,4.687,4.687,0,0,0-.311,1.118V83.19h-4.109V68.032h3.588l.338,1.17a4.365,4.365,0,0,1,2.028-1.314,8.709,8.709,0,0,1,2.288-.377,4.426,4.426,0,0,1,2.145.56,5.379,5.379,0,0,1,1.781,1.6,4.894,4.894,0,0,1,1.092-1.1,5.045,5.045,0,0,1,1.248-.663,5.926,5.926,0,0,1,1.378-.313,14.424,14.424,0,0,1,1.509-.078,4.481,4.481,0,0,1,1.975.455,5.147,5.147,0,0,1,1.652,1.287,6.229,6.229,0,0,1,1.13,2.016,7.833,7.833,0,0,1,.416,2.612V83.19h-4.108v-9.2a4.775,4.775,0,0,0-.143-1.131,3.634,3.634,0,0,0-.442-1.066,2.4,2.4,0,0,0-.78-.781,2.147,2.147,0,0,0-1.156-.3,2.311,2.311,0,0,0-1.73.78,3.507,3.507,0,0,0-.871,2.158Z" fill="#210c06"/>
      <path id="패스_1466" data-name="패스 1466" d="M5.906,76.56a11.356,11.356,0,0,0,3.224,1.9,9.868,9.868,0,0,0,3.8.7,3.949,3.949,0,0,0,1.9-.389,1.2,1.2,0,0,0,.6-1.094,1.647,1.647,0,0,0-.689-1.378,7.175,7.175,0,0,0-2.3-.962q-1.379-.388-2.834-.844a11.182,11.182,0,0,1-2.652-1.208,6.425,6.425,0,0,1-1.963-1.924,5.4,5.4,0,0,1-.767-3.017,5.867,5.867,0,0,1,.637-2.821,5.531,5.531,0,0,1,1.742-1.95,7.735,7.735,0,0,1,2.574-1.13,12.81,12.81,0,0,1,3.107-.365,14.327,14.327,0,0,1,2.171.156,12.738,12.738,0,0,1,2.028.481,13.778,13.778,0,0,1,1.976.82,18.668,18.668,0,0,1,2.015,1.2l-2.132,4.159a10.172,10.172,0,0,0-5.928-2.1,5.635,5.635,0,0,0-1.027.038,2.936,2.936,0,0,0-.845.233,1.689,1.689,0,0,0-.585.431.965.965,0,0,0-.221.648,1.892,1.892,0,0,0,.117.691,1.343,1.343,0,0,0,.455.558,4.278,4.278,0,0,0,.975.521,15.2,15.2,0,0,0,1.7.546q1.664.467,3.133.973A10.331,10.331,0,0,1,18.672,72.7a5.577,5.577,0,0,1,1.716,1.912,6.8,6.8,0,0,1,0,5.692,5.455,5.455,0,0,1-1.742,1.977,8.115,8.115,0,0,1-2.652,1.171,13.648,13.648,0,0,1-3.354.389,14.674,14.674,0,0,1-4.849-.78A16.35,16.35,0,0,1,3.618,80.9Z" fill="#fffbfa"/>
    </g>
  </g>
  <path id="패스_1467" data-name="패스 1467" d="M18.948,31.6h5.538V52.321H19.078V41.972L14.84,52.321H10.966L6.728,41.972V52.321H1.32V31.6H6.858L12.89,46.34Z" fill="#fffbfa"/>
  <rect id="사각형_2048" data-name="사각형 2048" width="19" height="5" transform="translate(3.5 16.33)" fill="#fffbfa"/>
  <rect id="사각형_2049" data-name="사각형 2049" width="4.999" height="21" transform="translate(3.5 0.33)" fill="#fffbfa"/>
  <line id="선_441" data-name="선 441" y2="6.612" transform="translate(390.976 383.924)" fill="none" stroke="#210c06" stroke-linecap="round" stroke-linejoin="round" stroke-width="3"/>
  <path id="패스_1468" data-name="패스 1468" d="M388.7,386.03l2.276-2.672,2.275,2.672" fill="none" stroke="#210c06" stroke-linecap="round" stroke-linejoin="round" stroke-width="3"/>
  <line id="선_442" data-name="선 442" x2="5.726" y2="3.306" transform="translate(373.587 398.428)" fill="none" stroke="#210c06" stroke-linecap="round" stroke-linejoin="round" stroke-width="3"/>
  <path id="패스_1469" data-name="패스 1469" d="M374.273,401.452l-1.176-3.307,3.451-.634" fill="none" stroke="#210c06" stroke-linecap="round" stroke-linejoin="round" stroke-width="3"/>
  <path id="패스_1470" data-name="패스 1470" d="M399.483,399.148l-7.89,4.556v9.113l7.892-4.557Z" fill="#fff"/>
  <g id="그룹_2528" data-name="그룹 2528">
    <g id="그룹_2527" data-name="그룹 2527" clip-path="url(#clip-path)">
      <path id="패스_1471" data-name="패스 1471" d="M399.483,399.148l-7.89,4.556v9.113l7.892-4.557Z" fill="none" stroke="#210c06" stroke-linecap="round" stroke-linejoin="round" stroke-width="3"/>
    </g>
  </g>
  <path id="패스_1472" data-name="패스 1472" d="M383.7,399.148v9.113l7.892,4.556V403.7Z" fill="#fff"/>
  <g id="그룹_2530" data-name="그룹 2530">
    <g id="그룹_2529" data-name="그룹 2529" clip-path="url(#clip-path)">
      <path id="패스_1473" data-name="패스 1473" d="M383.7,399.148v9.113l7.892,4.556V403.7Z" fill="none" stroke="#210c06" stroke-linecap="round" stroke-linejoin="round" stroke-width="3"/>
    </g>
  </g>
  <path id="패스_1474" data-name="패스 1474" d="M391.591,394.592l-7.892,4.556,7.892,4.557,7.892-4.557Z" fill="#fff"/>
  <path id="패스_1475" data-name="패스 1475" d="M391.591,394.592l-7.892,4.556,7.892,4.557,7.892-4.557Z" fill="none" stroke="#f26f1d" stroke-linecap="round" stroke-linejoin="round" stroke-width="3"/>
  <g id="그룹_2532" data-name="그룹 2532">
    <g id="그룹_2531" data-name="그룹 2531" clip-path="url(#clip-path)">
      <line id="선_443" data-name="선 443" x1="5.726" y2="3.306" transform="translate(403.869 398.429)" fill="none" stroke="#210c06" stroke-linecap="round" stroke-linejoin="round" stroke-width="3"/>
      <path id="패스_1476" data-name="패스 1476" d="M408.91,401.452l1.176-3.307-3.451-.634" fill="none" stroke="#210c06" stroke-linecap="round" stroke-linejoin="round" stroke-width="3"/>
    </g>
  </g>
  <rect id="사각형_2053" data-name="사각형 2053" width="9.605" height="8.314" transform="translate(307.994 401.989)" fill="#fff"/>
  <rect id="사각형_2054" data-name="사각형 2054" width="9.605" height="8.314" transform="translate(307.994 401.989)" fill="none" stroke="#210c06" stroke-linecap="round" stroke-linejoin="round" stroke-width="3"/>
  <rect id="사각형_2055" data-name="사각형 2055" width="9.605" height="8.316" transform="translate(307.994 393.673)" fill="#fff"/>
  <rect id="사각형_2056" data-name="사각형 2056" width="9.605" height="8.316" transform="translate(307.994 393.673)" fill="none" stroke="#210c06" stroke-linecap="round" stroke-linejoin="round" stroke-width="3"/>
  <rect id="사각형_2057" data-name="사각형 2057" width="9.604" height="8.316" transform="translate(298.39 393.673)" fill="#fff"/>
  <rect id="사각형_2058" data-name="사각형 2058" width="9.604" height="8.316" transform="translate(298.39 393.673)" fill="none" stroke="#210c06" stroke-linecap="round" stroke-linejoin="round" stroke-width="3"/>
  <rect id="사각형_2059" data-name="사각형 2059" width="9.604" height="8.314" transform="translate(298.39 401.989)" fill="#fff"/>
  <rect id="사각형_2060" data-name="사각형 2060" width="9.604" height="8.314" transform="translate(298.39 401.989)" fill="none" stroke="#210c06" stroke-linecap="round" stroke-linejoin="round" stroke-width="3"/>
  <rect id="사각형_2061" data-name="사각형 2061" width="9.604" height="8.314" transform="translate(317.599 401.989)" fill="#fff"/>
  <rect id="사각형_2062" data-name="사각형 2062" width="9.604" height="8.314" transform="translate(317.599 401.989)" fill="none" stroke="#210c06" stroke-linecap="round" stroke-linejoin="round" stroke-width="3"/>
  <rect id="사각형_2063" data-name="사각형 2063" width="9.605" height="8.315" transform="translate(307.994 385.358)" fill="#fff"/>
  <rect id="사각형_2064" data-name="사각형 2064" width="9.605" height="8.315" transform="translate(307.994 385.358)" fill="none" stroke="#210c06" stroke-linecap="round" stroke-linejoin="round" stroke-width="3"/>
  <g id="그룹_2540" data-name="그룹 2540">
    <g id="그룹_2539" data-name="그룹 2539" clip-path="url(#clip-path)">
      <line id="선_444" data-name="선 444" x2="30.325" transform="translate(297.634 415.073)" fill="none" stroke="#f26f1d" stroke-linecap="round" stroke-linejoin="round" stroke-width="3"/>
      <path id="패스_1477" data-name="패스 1477" d="M239.54,397.39a2.819,2.819,0,1,1-2.819-2.82,2.819,2.819,0,0,1,2.819,2.82Z" fill="#fff"/>
      <path id="패스_1478" data-name="패스 1478" d="M239.54,397.39a2.819,2.819,0,1,1-2.819-2.82,2.819,2.819,0,0,1,2.819,2.82Z" fill="none" stroke="#f26f1d" stroke-linecap="round" stroke-linejoin="round" stroke-width="3"/>
      <path id="패스_1479" data-name="패스 1479" d="M224.136,397.089a2.164,2.164,0,1,1-2.164-2.166,2.164,2.164,0,0,1,2.164,2.166v0" fill="#fff"/>
      <path id="패스_1480" data-name="패스 1480" d="M224.136,397.089a2.164,2.164,0,1,1-2.164-2.166,2.164,2.164,0,0,1,2.164,2.166Z" fill="none" stroke="#210c06" stroke-linecap="round" stroke-linejoin="round" stroke-width="3"/>
      <line id="선_445" data-name="선 445" x2="4.762" transform="translate(225.237 397.037)" fill="none" stroke="#210c06" stroke-linecap="round" stroke-linejoin="round" stroke-width="3"/>
      <path id="패스_1481" data-name="패스 1481" d="M249.307,397.089a2.164,2.164,0,1,0,2.164-2.166,2.164,2.164,0,0,0-2.164,2.166Z" fill="#fff"/>
      <path id="패스_1482" data-name="패스 1482" d="M249.307,397.089a2.164,2.164,0,1,0,2.164-2.166,2.164,2.164,0,0,0-2.164,2.166Z" fill="none" stroke="#210c06" stroke-linecap="round" stroke-linejoin="round" stroke-width="3"/>
      <line id="선_446" data-name="선 446" x1="4.762" transform="translate(243.444 397.037)" fill="none" stroke="#210c06" stroke-linecap="round" stroke-linejoin="round" stroke-width="3"/>
      <path id="패스_1483" data-name="패스 1483" d="M230.429,407.988a2.164,2.164,0,1,1-2.958.791,2.164,2.164,0,0,1,2.958-.791h0" fill="#fff"/>
      <path id="패스_1484" data-name="패스 1484" d="M230.429,407.988a2.164,2.164,0,1,1-2.958.791,2.164,2.164,0,0,1,2.958-.791Z" fill="none" stroke="#210c06" stroke-linecap="round" stroke-linejoin="round" stroke-width="3"/>
      <line id="선_447" data-name="선 447" y1="4.124" x2="2.381" transform="translate(230.934 402.884)" fill="none" stroke="#210c06" stroke-linecap="round" stroke-linejoin="round" stroke-width="3"/>
      <path id="패스_1485" data-name="패스 1485" d="M243.014,386.189a2.164,2.164,0,1,0-.794-2.957,2.163,2.163,0,0,0,.794,2.957h0" fill="#fff"/>
      <path id="패스_1486" data-name="패스 1486" d="M243.014,386.189a2.164,2.164,0,1,0-.794-2.957,2.163,2.163,0,0,0,.794,2.957Z" fill="none" stroke="#210c06" stroke-linecap="round" stroke-linejoin="round" stroke-width="3"/>
      <line id="선_448" data-name="선 448" x1="2.381" y2="4.124" transform="translate(240.038 387.117)" fill="none" stroke="#210c06" stroke-linecap="round" stroke-linejoin="round" stroke-width="3"/>
      <path id="패스_1487" data-name="패스 1487" d="M243.015,407.987a2.164,2.164,0,1,1-.794,2.957,2.163,2.163,0,0,1,.794-2.957h0" fill="#fff"/>
      <path id="패스_1488" data-name="패스 1488" d="M243.015,407.987a2.164,2.164,0,1,1-.794,2.957,2.163,2.163,0,0,1,.794-2.957Z" fill="none" stroke="#210c06" stroke-linecap="round" stroke-linejoin="round" stroke-width="3"/>
      <line id="선_449" data-name="선 449" x1="2.381" y1="4.124" transform="translate(240.038 402.935)" fill="none" stroke="#210c06" stroke-linecap="round" stroke-linejoin="round" stroke-width="3"/>
      <path id="패스_1489" data-name="패스 1489" d="M230.429,386.188a2.164,2.164,0,1,0-2.958-.791,2.164,2.164,0,0,0,2.958.791Z" fill="#fff"/>
      <path id="패스_1490" data-name="패스 1490" d="M230.429,386.188a2.164,2.164,0,1,0-2.958-.791,2.164,2.164,0,0,0,2.958.791Z" fill="none" stroke="#210c06" stroke-linecap="round" stroke-linejoin="round" stroke-width="3"/>
      <line id="선_450" data-name="선 450" x2="2.381" y2="4.124" transform="translate(230.935 387.168)" fill="none" stroke="#210c06" stroke-linecap="round" stroke-linejoin="round" stroke-width="3"/>
      <path id="패스_1491" data-name="패스 1491" d="M163.324,413.988h-3.662a.794.794,0,0,1-.787-.688l-.347-2.567a11.351,11.351,0,0,1-2.757-1.144l-2.061,1.569a.793.793,0,0,1-1.042-.07l-2.591-2.589a.794.794,0,0,1-.067-1.041l1.572-2.063a11.325,11.325,0,0,1-1.143-2.756l-2.569-.348a.794.794,0,0,1-.688-.787v-3.662a.794.794,0,0,1,.688-.787l2.569-.348a11.329,11.329,0,0,1,1.144-2.756l-1.573-2.063a.794.794,0,0,1,.07-1.043l2.586-2.587a.792.792,0,0,1,1.043-.07l2.062,1.57a11.351,11.351,0,0,1,2.757-1.144l.348-2.569a.793.793,0,0,1,.786-.687h3.661a.794.794,0,0,1,.787.687l.348,2.569a11.338,11.338,0,0,1,2.752,1.144l2.063-1.572a.794.794,0,0,1,1.043.07l2.594,2.59a.794.794,0,0,1,.07,1.043l-1.57,2.062a11.329,11.329,0,0,1,1.144,2.756l2.568.347a.794.794,0,0,1,.688.787V401.5a.794.794,0,0,1-.687.787l-2.568.348a11.292,11.292,0,0,1-1.145,2.756l1.57,2.064a.794.794,0,0,1-.07,1.043l-2.59,2.589a.793.793,0,0,1-1.042.07l-2.063-1.571a11.351,11.351,0,0,1-2.757,1.144l-.348,2.567a.794.794,0,0,1-.787.688" fill="#fff"/>
      <path id="패스_1492" data-name="패스 1492" d="M163.324,413.988h-3.662a.794.794,0,0,1-.787-.688l-.347-2.567a11.351,11.351,0,0,1-2.757-1.144l-2.061,1.569a.793.793,0,0,1-1.042-.07l-2.591-2.589a.794.794,0,0,1-.067-1.041l1.572-2.063a11.325,11.325,0,0,1-1.143-2.756l-2.569-.348a.794.794,0,0,1-.688-.787v-3.662a.794.794,0,0,1,.688-.787l2.569-.348a11.329,11.329,0,0,1,1.144-2.756l-1.573-2.063a.794.794,0,0,1,.07-1.043l2.586-2.587a.792.792,0,0,1,1.043-.07l2.062,1.57a11.351,11.351,0,0,1,2.757-1.144l.348-2.569a.793.793,0,0,1,.786-.687h3.661a.794.794,0,0,1,.787.687l.348,2.569a11.338,11.338,0,0,1,2.752,1.144l2.063-1.572a.794.794,0,0,1,1.043.07l2.594,2.59a.794.794,0,0,1,.07,1.043l-1.57,2.062a11.329,11.329,0,0,1,1.144,2.756l2.568.347a.794.794,0,0,1,.688.787V401.5a.794.794,0,0,1-.687.787l-2.568.348a11.292,11.292,0,0,1-1.145,2.756l1.57,2.064a.794.794,0,0,1-.07,1.043l-2.59,2.589a.793.793,0,0,1-1.042.07l-2.063-1.571a11.351,11.351,0,0,1-2.757,1.144l-.348,2.567a.794.794,0,0,1-.787.688" fill="none" stroke="#210c06" stroke-width="3"/>
      <path id="패스_1493" data-name="패스 1493" d="M165.49,399.672a4,4,0,1,1-4-4,4,4,0,0,1,4,4" fill="#fff"/>
      <circle id="타원_4708" data-name="타원 4708" cx="4" cy="4" r="4" transform="translate(157.49 395.672)" fill="none" stroke="#f26f1d" stroke-linecap="round" stroke-linejoin="round" stroke-width="3"/>
      <path id="패스_1494" data-name="패스 1494" d="M72.577,407.818v-15.46a5,5,0,0,1,5-5h20.6a5,5,0,0,1,5,5v15.46a5,5,0,0,1-5,5h-20.6a5,5,0,0,1-5-5" fill="#fff"/>
      <rect id="사각형_2065" data-name="사각형 2065" width="30.601" height="25.46" rx="5" transform="translate(72.577 387.358)" fill="none" stroke="#210c06" stroke-linecap="round" stroke-linejoin="round" stroke-width="3"/>
      <g id="그룹_2538" data-name="그룹 2538" style="isolation: isolate">
        <g id="그룹_2537" data-name="그룹 2537">
          <g id="그룹_2536" data-name="그룹 2536" clip-path="url(#clip-path-6)">
            <g id="그룹_2535" data-name="그룹 2535" style="isolation: isolate">
              <g id="그룹_2534" data-name="그룹 2534">
                <g id="그룹_2533" data-name="그룹 2533" clip-path="url(#clip-path-6)">
                  <text id="_" data-name="@" transform="translate(75.878 400.631)" fill="#210c06" font-size="12" font-family="SBAggroB, SB Aggro"><tspan x="0" y="0">@</tspan></text>
                </g>
              </g>
            </g>
          </g>
        </g>
      </g>
      <line id="선_451" data-name="선 451" y2="1.498" transform="translate(97.466 405.631)" fill="none" stroke="#f26f1d" stroke-linecap="round" stroke-linejoin="round" stroke-width="3"/>
      <line id="선_452" data-name="선 452" y2="1.498" transform="translate(92.672 405.631)" fill="none" stroke="#f26f1d" stroke-linecap="round" stroke-linejoin="round" stroke-width="3"/>
      <line id="선_453" data-name="선 453" y2="1.498" transform="translate(87.878 405.631)" fill="none" stroke="#f26f1d" stroke-linecap="round" stroke-linejoin="round" stroke-width="3"/>
      <path id="패스_1495" data-name="패스 1495" d="M11.034,408.947v-.418H24.427V385.358H1.5v23.589a6.084,6.084,0,0,0,3.743,5.611H7.29a6.084,6.084,0,0,0,3.744-5.611" fill="#fff"/>
      <path id="패스_1496" data-name="패스 1496" d="M11.034,408.947v-.418H24.427V385.358H1.5v23.589a6.084,6.084,0,0,0,3.743,5.611H7.29A6.084,6.084,0,0,0,11.034,408.947Z" fill="none" stroke="#210c06" stroke-linecap="round" stroke-linejoin="round" stroke-width="3"/>
      <path id="패스_1497" data-name="패스 1497" d="M24.426,414.561h.4a6.08,6.08,0,0,0,3.742-5.613v-.421H24.426" fill="none" stroke="#210c06" stroke-linecap="round" stroke-linejoin="round" stroke-width="3"/>
      <path id="패스_1498" data-name="패스 1498" d="M24.426,408.527H11.033v.418a6.085,6.085,0,0,1-3.743,5.614H24.426" fill="none" stroke="#210c06" stroke-linecap="round" stroke-linejoin="round" stroke-width="3"/>
      <line id="선_454" data-name="선 454" x2="4.794" transform="translate(7.838 394.526)" fill="none" stroke="#f26f1d" stroke-linecap="round" stroke-linejoin="round" stroke-width="3"/>
      <path id="패스_1499" data-name="패스 1499" d="M386.332,312.608v-2.729a3.9,3.9,0,0,1,3.9-3.9h1.56a3.9,3.9,0,0,1,3.9,3.9v.342" fill="none" stroke="#f26f1d" stroke-linecap="round" stroke-linejoin="round" stroke-width="3"/>
      <path id="패스_1500" data-name="패스 1500" d="M386.179,314.779h10.365a5.347,5.347,0,0,1,5.347,5.347v9.585a5.347,5.347,0,0,1-5.347,5.347H386.179a5.347,5.347,0,0,1-5.347-5.347v-9.585a5.347,5.347,0,0,1,5.347-5.347" fill="#fff"/>
      <rect id="사각형_2068" data-name="사각형 2068" width="21.059" height="20.279" rx="5.347" transform="translate(380.832 314.779)" fill="none" stroke="#210c06" stroke-linecap="round" stroke-linejoin="round" stroke-width="3"/>
      <line id="선_455" data-name="선 455" y2="6" transform="translate(391.832 321.015)" fill="none" stroke="#210c06" stroke-linecap="round" stroke-width="3"/>
      <path id="패스_1501" data-name="패스 1501" d="M305.116,306.979h19.391a4.557,4.557,0,0,1,4.557,4.557V323.8a4.557,4.557,0,0,1-4.557,4.557H305.116a4.558,4.558,0,0,1-4.558-4.558V311.537a4.558,4.558,0,0,1,4.558-4.558" fill="#fff"/>
      <path id="사각형_2069" data-name="사각형 2069" d="M4.558,0H23.949a4.557,4.557,0,0,1,4.557,4.557V16.823a4.557,4.557,0,0,1-4.557,4.557H4.558A4.558,4.558,0,0,1,0,16.822V4.558A4.558,4.558,0,0,1,4.558,0Z" transform="translate(300.558 306.979)" fill="none" stroke="#210c06" stroke-linecap="round" stroke-linejoin="round" stroke-width="3"/>
      <path id="패스_1502" data-name="패스 1502" d="M314.812,332.937Z" fill="none" stroke="#210c06" stroke-linecap="round" stroke-linejoin="round" stroke-width="3"/>
      <line id="선_456" data-name="선 456" x2="12.884" transform="translate(308.369 333.733)" fill="none" stroke="#210c06" stroke-linecap="round" stroke-linejoin="round" stroke-width="3"/>
      <line id="선_457" data-name="선 457" x2="3.376" transform="translate(307.013 313.808)" fill="none" stroke="#f26f1d" stroke-linecap="round" stroke-linejoin="round" stroke-width="3"/>
      <line id="선_458" data-name="선 458" x2="9.001" transform="translate(307.013 319.434)" fill="none" stroke="#f26f1d" stroke-linecap="round" stroke-linejoin="round" stroke-width="3"/>
      <path id="패스_1503" data-name="패스 1503" d="M336.832,329.409V332.2a2.641,2.641,0,0,1-.223,1.062,2.7,2.7,0,0,1-.606.867,2.851,2.851,0,0,1-.9.585,2.919,2.919,0,0,1-1.1.214h-8.2a2.9,2.9,0,0,1-1.1-.214,2.852,2.852,0,0,1-.9-.585,2.731,2.731,0,0,1-.606-.867,2.642,2.642,0,0,1-.223-1.062V316.379a2.646,2.646,0,0,1,.223-1.063,2.747,2.747,0,0,1,.606-.867,2.851,2.851,0,0,1,.9-.585,2.919,2.919,0,0,1,1.1-.214H334a2.919,2.919,0,0,1,1.1.214,2.851,2.851,0,0,1,.9.585,2.7,2.7,0,0,1,.606.867,2.646,2.646,0,0,1,.223,1.063v12.427" fill="#fff"/>
      <path id="패스_1504" data-name="패스 1504" d="M336.832,329.409V332.2a2.641,2.641,0,0,1-.223,1.062,2.7,2.7,0,0,1-.606.867,2.851,2.851,0,0,1-.9.585,2.919,2.919,0,0,1-1.1.214h-8.2a2.9,2.9,0,0,1-1.1-.214,2.852,2.852,0,0,1-.9-.585,2.731,2.731,0,0,1-.606-.867,2.642,2.642,0,0,1-.223-1.062V316.379a2.646,2.646,0,0,1,.223-1.063,2.747,2.747,0,0,1,.606-.867,2.851,2.851,0,0,1,.9-.585,2.919,2.919,0,0,1,1.1-.214H334a2.919,2.919,0,0,1,1.1.214,2.851,2.851,0,0,1,.9.585,2.7,2.7,0,0,1,.606.867,2.646,2.646,0,0,1,.223,1.063v12.427" fill="none" stroke="#210c06" stroke-linecap="round" stroke-linejoin="round" stroke-width="3"/>
      <line id="선_459" data-name="선 459" x2="2.18" transform="translate(328.81 316.767)" fill="none" stroke="#210c06" stroke-linecap="round" stroke-linejoin="round" stroke-width="3"/>
      <path id="패스_1505" data-name="패스 1505" d="M232.178,304.979h16.379a8,8,0,0,1,8,8v16.379a8,8,0,0,1-8,8H232.178a8,8,0,0,1-8-8V312.979a8,8,0,0,1,8-8" fill="#fff"/>
      <rect id="사각형_2070" data-name="사각형 2070" width="29.379" height="29.379" rx="6.5" transform="translate(225.678 306.479)" fill="none" stroke="#210c06" stroke-width="3"/>
      <path id="패스_1506" data-name="패스 1506" d="M229.222,334.46l5-6.617,5.814,7.225,7.86-15.7,6.7,9.43" fill="none" stroke="#210c06" stroke-linecap="round" stroke-linejoin="round" stroke-width="3"/>
      <path id="패스_1507" data-name="패스 1507" d="M238.774,318.255a2.913,2.913,0,1,1-2.912-2.917,2.913,2.913,0,0,1,2.912,2.917Z" fill="#fff"/>
      <path id="패스_1508" data-name="패스 1508" d="M238.774,318.255a2.913,2.913,0,1,1-2.912-2.917,2.913,2.913,0,0,1,2.912,2.917Z" fill="none" stroke="#f26f1d" stroke-linecap="round" stroke-linejoin="round" stroke-width="3"/>
      <path id="패스_1509" data-name="패스 1509" d="M159.718,305.979h15.46a5,5,0,0,1,5,5v20.6a5,5,0,0,1-5,5h-15.46a5,5,0,0,1-5-5v-20.6a5,5,0,0,1,5-5" fill="#fff"/>
      <rect id="사각형_2071" data-name="사각형 2071" width="25.46" height="30.601" rx="5" transform="translate(154.718 305.979)" fill="none" stroke="#210c06" stroke-linecap="round" stroke-linejoin="round" stroke-width="3"/>
      <line id="선_460" data-name="선 460" x2="6.433" transform="translate(164.232 313.193)" fill="none" stroke="#f26f1d" stroke-linecap="round" stroke-linejoin="round" stroke-width="3"/>
      <line id="선_461" data-name="선 461" x2="12.019" transform="translate(161.439 319.806)" fill="none" stroke="#210c06" stroke-linecap="round" stroke-linejoin="round" stroke-width="3"/>
      <line id="선_462" data-name="선 462" x2="12.019" transform="translate(161.439 324.146)" fill="none" stroke="#210c06" stroke-linecap="round" stroke-linejoin="round" stroke-width="3"/>
      <line id="선_463" data-name="선 463" x2="12.019" transform="translate(161.439 328.486)" fill="none" stroke="#210c06" stroke-linecap="round" stroke-linejoin="round" stroke-width="3"/>
      <path id="패스_1510" data-name="패스 1510" d="M98.085,328.829h9.327V310.14a2.163,2.163,0,0,0-2.161-2.161H82.139a2.162,2.162,0,0,0-2.161,2.161v18.689H89.3" fill="#fff"/>
      <path id="패스_1511" data-name="패스 1511" d="M98.085,328.829h9.327V310.14a2.163,2.163,0,0,0-2.161-2.161H82.139a2.162,2.162,0,0,0-2.161,2.161v18.689H89.3" fill="none" stroke="#210c06" stroke-linecap="round" stroke-linejoin="round" stroke-width="3"/>
      <path id="패스_1512" data-name="패스 1512" d="M89.3,328.829H76.669v2.765a2.623,2.623,0,0,0,2.288,2.859h29.476a2.622,2.622,0,0,0,2.286-2.859v-2.765H98.085" fill="none" stroke="#210c06" stroke-linecap="round" stroke-linejoin="round" stroke-width="3"/>
      <line id="선_464" data-name="선 464" x2="1.867" transform="translate(92.76 312.74)" fill="none" stroke="#210c06" stroke-linecap="round" stroke-linejoin="round" stroke-width="3"/>
      <line id="선_465" data-name="선 465" x2="2.532" transform="translate(85.254 321.414)" fill="none" stroke="#f26f1d" stroke-linecap="round" stroke-linejoin="round" stroke-width="3"/>
      <line id="선_466" data-name="선 466" x2="2.532" transform="translate(92.427 321.414)" fill="none" stroke="#f26f1d" stroke-linecap="round" stroke-linejoin="round" stroke-width="3"/>
      <line id="선_467" data-name="선 467" x2="2.532" transform="translate(99.6 321.414)" fill="none" stroke="#f26f1d" stroke-linecap="round" stroke-linejoin="round" stroke-width="3"/>
      <path id="패스_1513" data-name="패스 1513" d="M7.569,330.631H4.946a3.431,3.431,0,0,1-2.436-1.01,3.483,3.483,0,0,1-.738-1.1,3.41,3.41,0,0,1-.272-1.336V319a3.445,3.445,0,0,1,3.446-3.448H29.221A3.447,3.447,0,0,1,32.668,319h0v8.177a3.444,3.444,0,0,1-3.442,3.446H26.6" fill="#fff"/>
      <path id="패스_1514" data-name="패스 1514" d="M7.569,330.631H4.946a3.431,3.431,0,0,1-2.436-1.01,3.483,3.483,0,0,1-.738-1.1,3.41,3.41,0,0,1-.272-1.336V319a3.445,3.445,0,0,1,3.446-3.448H29.221A3.447,3.447,0,0,1,32.668,319h0v8.177a3.444,3.444,0,0,1-3.442,3.446H26.6" fill="none" stroke="#210c06" stroke-linecap="round" stroke-linejoin="round" stroke-width="3"/>
      <path id="패스_1515" data-name="패스 1515" d="M9.207,314.556v-9.577H24.961v9.578" fill="#fff"/>
      <path id="패스_1516" data-name="패스 1516" d="M9.207,314.556v-9.577H24.961v9.578" fill="none" stroke="#210c06" stroke-linecap="round" stroke-linejoin="round" stroke-width="3"/>
      <rect id="사각형_2072" data-name="사각형 2072" width="15.755" height="11.646" transform="translate(9.206 325.152)" fill="none" stroke="#f26f1d" stroke-linecap="round" stroke-linejoin="round" stroke-width="3"/>
      <path id="패스_1517" data-name="패스 1517" d="M393.821,255.007l-.529-.625h-.817v-.967l-2.923-3.461-12.171-.114-3.512-.033,2.452-2.514,16.58-17,.442-.453h6.869v24.545H394.56Zm-9.216-9.667,5.677.053.719.007.688.007.444.525.342.4V237.27Z" fill="#f7f7f7"/>
      <path id="패스_1518" data-name="패스 1518" d="M393.975,231.337l-16.58,17,12.859.121,3.721,4.4v.016h.013l.01.011.013-.011h4.7V231.337Zm0,19.1-2.988-3.537-9.907-.093,12.9-13.224v16.854m0-22.1h4.737a3,3,0,0,1,3,3v21.545a3,3,0,0,1-3,3h-4.451a3.043,3.043,0,0,1-2.73-1.26l-2.681-3.174-11.483-.108a3,3,0,0,1-2.12-5.094l16.58-17a3,3,0,0,1,2.148-.906m-3,15.563v-2.944l-2.844,2.917Z" fill="#210c06"/>
      <path id="패스_1519" data-name="패스 1519" d="M325.131,249.169h1.653a6.611,6.611,0,1,0,.163-13.221h-2.88a7.225,7.225,0,0,0-14.4,0h-2.715a6.611,6.611,0,0,0-.163,13.221H308.6" fill="#fff"/>
      <path id="패스_1520" data-name="패스 1520" d="M325.131,249.169h1.653a6.611,6.611,0,1,0,.163-13.221h-2.88a7.225,7.225,0,0,0-14.4,0h-2.715a6.611,6.611,0,0,0-.163,13.221H308.6" fill="none" stroke="#210c06" stroke-linecap="round" stroke-linejoin="round" stroke-width="3"/>
      <line id="선_468" data-name="선 468" y1="9.885" transform="translate(312.758 245.462)" fill="none" stroke="#210c06" stroke-linecap="round" stroke-linejoin="round" stroke-width="3"/>
      <path id="패스_1521" data-name="패스 1521" d="M316.16,252.2l-3.4,3.994-3.4-3.994" fill="none" stroke="#210c06" stroke-linecap="round" stroke-linejoin="round" stroke-width="3"/>
      <line id="선_469" data-name="선 469" y2="9.885" transform="translate(320.811 242.499)" fill="none" stroke="#f26f1d" stroke-linecap="round" stroke-linejoin="round" stroke-width="3"/>
      <path id="패스_1522" data-name="패스 1522" d="M324.213,245.649l-3.4-3.994-3.4,3.994" fill="none" stroke="#f26f1d" stroke-linecap="round" stroke-linejoin="round" stroke-width="3"/>
      <path id="패스_1523" data-name="패스 1523" d="M238.872,247.806h17.469V231.987a1.652,1.652,0,0,0-1.65-1.65H240.658a5.5,5.5,0,0,0-5.5,5.5v13.895a5.632,5.632,0,0,0,.092.978,3.711,3.711,0,0,1,3.622-2.9" fill="#fff"/>
      <path id="패스_1524" data-name="패스 1524" d="M238.872,247.806h17.469V231.987a1.652,1.652,0,0,0-1.65-1.65H240.658a5.5,5.5,0,0,0-5.5,5.5v13.895a5.632,5.632,0,0,0,.092.978A3.711,3.711,0,0,1,238.872,247.806Z" fill="none" stroke="#210c06" stroke-linecap="round" stroke-linejoin="round" stroke-width="3"/>
      <path id="패스_1525" data-name="패스 1525" d="M238.872,247.806a3.714,3.714,0,0,0,0,7.428h15.819a1.652,1.652,0,0,0,1.65-1.651v-5.777Z" fill="none" stroke="#210c06" stroke-linecap="round" stroke-linejoin="round" stroke-width="3"/>
      <line id="선_470" data-name="선 470" x1="9.315" transform="translate(244.237 251.383)" fill="none" stroke="#f26f1d" stroke-linecap="round" stroke-linejoin="round" stroke-width="3"/>
      <path id="패스_1526" data-name="패스 1526" d="M175.7,259.495l-2.27-1.5-7.215-4.782a9.005,9.005,0,0,1-3.345-5.027l-2.6-16.536a2.771,2.771,0,0,1,2.083-2.876l9.66-2.487,3.689-.95,3.691.95,9.661,2.487a2.774,2.774,0,0,1,2.082,2.875l-2.6,16.535a9,9,0,0,1-3.342,5.027l-7.213,4.778-1.476.976c-.3.194-.558.372-.8.53" fill="#fff"/>
      <path id="패스_1527" data-name="패스 1527" d="M175.7,259.495l-2.27-1.5-7.215-4.782a9.005,9.005,0,0,1-3.345-5.027l-2.6-16.536a2.771,2.771,0,0,1,2.083-2.876l9.66-2.487,3.689-.95,3.691.95,9.661,2.487a2.774,2.774,0,0,1,2.082,2.875l-2.6,16.535a9,9,0,0,1-3.342,5.027l-7.213,4.778-1.476.976C176.205,259.159,175.946,259.337,175.7,259.495Z" fill="none" stroke="#272727" stroke-linecap="round" stroke-linejoin="round" stroke-width="3"/>
      <path id="패스_1528" data-name="패스 1528" d="M179.178,238.628a3.475,3.475,0,1,1-3.475-3.478,3.475,3.475,0,0,1,3.475,3.478Z" fill="#fff"/>
      <path id="패스_1529" data-name="패스 1529" d="M179.178,238.628a3.475,3.475,0,1,1-3.475-3.478,3.475,3.475,0,0,1,3.475,3.478Z" fill="none" stroke="#f26f1d" stroke-linecap="round" stroke-linejoin="round" stroke-width="3"/>
      <path id="패스_1530" data-name="패스 1530" d="M111.256,225.337H90.077a4.992,4.992,0,0,0-4.992,4.994v13.893a4.992,4.992,0,0,0,4.992,4.99h5.935v9.31l7.854-9.31h7.39a4.991,4.991,0,0,0,4.99-4.99V230.331a4.993,4.993,0,0,0-4.99-4.994" fill="#fff"/>
      <path id="패스_1531" data-name="패스 1531" d="M111.256,225.337H90.077a4.992,4.992,0,0,0-4.992,4.994v13.893a4.992,4.992,0,0,0,4.992,4.99h5.935v9.31l7.854-9.31h7.39a4.991,4.991,0,0,0,4.99-4.99V230.331A4.993,4.993,0,0,0,111.256,225.337Z" fill="none" stroke="#210c06" stroke-linecap="round" stroke-linejoin="round" stroke-width="3"/>
      <path id="패스_1532" data-name="패스 1532" d="M97.967,237.1a2.611,2.611,0,1,1-2.612-2.613,2.611,2.611,0,0,1,2.612,2.613Z" fill="#fff"/>
      <path id="패스_1533" data-name="패스 1533" d="M97.967,237.1a2.611,2.611,0,1,1-2.612-2.613,2.611,2.611,0,0,1,2.612,2.613Z" fill="none" stroke="#f26f1d" stroke-linecap="round" stroke-linejoin="round" stroke-width="3"/>
      <line id="선_471" data-name="선 471" x2="5.746" transform="translate(102.678 237.095)" fill="none" stroke="#210c06" stroke-linecap="round" stroke-linejoin="round" stroke-width="3"/>
      <path id="패스_1534" data-name="패스 1534" d="M28.366,239.527v-8.839a1.815,1.815,0,0,0-1.813-1.814H11.417v-2.723A1.816,1.816,0,0,0,9.6,224.337H3.314A1.814,1.814,0,0,0,1.5,226.151v22.36a1.813,1.813,0,0,0,1.813,1.813h6.71" fill="#fff"/>
      <path id="패스_1535" data-name="패스 1535" d="M28.366,239.527v-8.839a1.815,1.815,0,0,0-1.813-1.814H11.417v-2.723A1.816,1.816,0,0,0,9.6,224.337H3.314A1.814,1.814,0,0,0,1.5,226.151v22.36a1.813,1.813,0,0,0,1.813,1.813h6.71" fill="none" stroke="#210c06" stroke-linecap="round" stroke-linejoin="round" stroke-width="3"/>
      <path id="패스_1536" data-name="패스 1536" d="M39.272,239.527H24.136V236.8a1.814,1.814,0,0,0-1.814-1.814H16.033a1.814,1.814,0,0,0-1.814,1.814v22.36a1.815,1.815,0,0,0,1.814,1.813H39.272a1.813,1.813,0,0,0,1.813-1.813V241.34a1.815,1.815,0,0,0-1.813-1.813" fill="#fff"/>
      <path id="패스_1537" data-name="패스 1537" d="M39.272,239.527H24.136V236.8a1.814,1.814,0,0,0-1.814-1.814H16.033a1.814,1.814,0,0,0-1.814,1.814v22.36a1.815,1.815,0,0,0,1.814,1.813H39.272a1.813,1.813,0,0,0,1.813-1.813V241.34A1.815,1.815,0,0,0,39.272,239.527Z" fill="none" stroke="#f26f1d" stroke-linecap="round" stroke-linejoin="round" stroke-width="3"/>
      <path id="패스_1538" data-name="패스 1538" d="M399.84,162.864a13.716,13.716,0,1,1-13.716-13.718,13.716,13.716,0,0,1,13.716,13.718Z" fill="#fff"/>
      <path id="패스_1539" data-name="패스 1539" d="M399.84,162.864a13.716,13.716,0,1,1-13.716-13.718,13.716,13.716,0,0,1,13.716,13.718Z" fill="none" stroke="#210c06" stroke-linecap="round" stroke-linejoin="round" stroke-width="3"/>
      <path id="패스_1540" data-name="패스 1540" d="M383.893,158.014l8.4,4.85-8.4,4.849Z"/>
      <path id="패스_1541" data-name="패스 1541" d="M383.893,158.014l8.4,4.85-8.4,4.849Z" fill="none" stroke="#f26f1d" stroke-linecap="round" stroke-linejoin="round" stroke-width="3"/>
      <path id="패스_1542" data-name="패스 1542" d="M307,151.48a4.336,4.336,0,1,1-4.338-4.334A4.336,4.336,0,0,1,307,151.48" fill="#fff"/>
      <path id="패스_1543" data-name="패스 1543" d="M307,151.48a4.336,4.336,0,1,1-4.338-4.334A4.336,4.336,0,0,1,307,151.48Z" fill="none" stroke="#f26f1d" stroke-linecap="round" stroke-linejoin="round" stroke-width="3"/>
      <path id="패스_1544" data-name="패스 1544" d="M289.388,172.81h0a13.007,13.007,0,1,1,26.013-.228q0,.114,0,.228" fill="#fff"/>
      <path id="패스_1545" data-name="패스 1545" d="M289.388,172.81h0a13.007,13.007,0,1,1,26.013-.228q0,.114,0,.228" fill="none" stroke="#210c06" stroke-linecap="round" stroke-linejoin="round" stroke-width="3"/>
      <path id="패스_1546" data-name="패스 1546" d="M320.011,157.48a4.336,4.336,0,1,1-4.338-4.334,4.336,4.336,0,0,1,4.338,4.334" fill="#fff"/>
      <path id="패스_1547" data-name="패스 1547" d="M320.011,157.48a4.336,4.336,0,1,1-4.338-4.334A4.336,4.336,0,0,1,320.011,157.48Z" fill="none" stroke="#f26f1d" stroke-linecap="round" stroke-linejoin="round" stroke-width="3"/>
      <path id="패스_1548" data-name="패스 1548" d="M302.395,178.81h0a13.007,13.007,0,1,1,26.013-.228q0,.114,0,.228" fill="#fff"/>
      <path id="패스_1549" data-name="패스 1549" d="M302.395,178.81h0a13.007,13.007,0,1,1,26.013-.228q0,.114,0,.228" fill="none" stroke="#210c06" stroke-linecap="round" stroke-linejoin="round" stroke-width="3"/>
      <path id="패스_1550" data-name="패스 1550" d="M240.994,170.795v4.368a4.261,4.261,0,0,1-4.255,4.267H224.354a4.268,4.268,0,0,1-4.268-4.267V150.412a4.262,4.262,0,0,1,4.258-4.266h12.382a4.263,4.263,0,0,1,4.267,4.259v4.371" fill="#fff"/>
      <path id="패스_1551" data-name="패스 1551" d="M240.994,170.795v4.368a4.261,4.261,0,0,1-4.255,4.267H224.354a4.268,4.268,0,0,1-4.268-4.267V150.412a4.262,4.262,0,0,1,4.258-4.266h12.382a4.263,4.263,0,0,1,4.267,4.259v4.371" fill="none" stroke="#210c06" stroke-linecap="round" stroke-linejoin="round" stroke-width="3"/>
      <line id="선_472" data-name="선 472" x2="2.986" transform="translate(229.047 150.413)" fill="none" stroke="#210c06" stroke-linecap="round" stroke-linejoin="round" stroke-width="3"/>
      <path id="패스_1552" data-name="패스 1552" d="M245.389,160.81H229.6l4.368-4.368" fill="#fff"/>
      <path id="패스_1553" data-name="패스 1553" d="M245.389,160.81H229.6l4.368-4.368" fill="none" stroke="#f26f1d" stroke-linecap="round" stroke-linejoin="round" stroke-width="3"/>
      <line id="선_473" data-name="선 473" x2="5.471" transform="translate(239.918 165.368)" fill="none" stroke="#210c06" stroke-linecap="round" stroke-linejoin="round" stroke-width="3"/>
      <rect id="사각형_2073" data-name="사각형 2073" width="6.616" height="11.992" transform="translate(147.142 164.618)" fill="#fff"/>
      <rect id="사각형_2074" data-name="사각형 2074" width="6.616" height="11.992" transform="translate(147.142 164.618)" fill="none" stroke="#272727" stroke-linecap="round" stroke-linejoin="round" stroke-width="3"/>
      <rect id="사각형_2075" data-name="사각형 2075" width="6.616" height="26.464" transform="translate(158.306 150.146)" fill="#fff"/>
      <rect id="사각형_2076" data-name="사각형 2076" width="6.616" height="26.464" transform="translate(158.306 150.146)" fill="none" stroke="#f26f1d" stroke-linecap="round" stroke-linejoin="round" stroke-width="3"/>
      <rect id="사각형_2077" data-name="사각형 2077" width="6.616" height="19.848" transform="translate(169.47 156.762)" fill="#fff"/>
      <rect id="사각형_2078" data-name="사각형 2078" width="6.616" height="19.848" transform="translate(169.47 156.762)" fill="none" stroke="#272727" stroke-linecap="round" stroke-linejoin="round" stroke-width="3"/>
      <path id="패스_1554" data-name="패스 1554" d="M73.952,146.146H98.143a5,5,0,0,1,5,5v18.721a5,5,0,0,1-5,5H73.952a5,5,0,0,1-5-5V151.146a5,5,0,0,1,5-5" fill="#fff"/>
      <rect id="사각형_2079" data-name="사각형 2079" width="34.191" height="28.721" rx="5" transform="translate(68.952 146.146)" fill="none" stroke="#210c06" stroke-linecap="round" stroke-linejoin="round" stroke-width="3"/>
      <line id="선_474" data-name="선 474" x2="14.132" transform="translate(78.981 180.337)" fill="none" stroke="#210c06" stroke-linecap="round" stroke-linejoin="round" stroke-width="3"/>
      <line id="선_475" data-name="선 475" x2="0.912" transform="translate(77.355 155.81)" fill="none" stroke="#f26f1d" stroke-linecap="round" stroke-linejoin="round" stroke-width="3"/>
      <line id="선_476" data-name="선 476" x2="10.029" transform="translate(83.434 155.81)" fill="none" stroke="#f26f1d" stroke-linecap="round" stroke-linejoin="round" stroke-width="3"/>
      <line id="선_477" data-name="선 477" x1="0.912" transform="translate(92.552 164.927)" fill="none" stroke="#210c06" stroke-linecap="round" stroke-linejoin="round" stroke-width="3"/>
      <line id="선_478" data-name="선 478" x1="10.029" transform="translate(77.356 164.927)" fill="none" stroke="#210c06" stroke-linecap="round" stroke-linejoin="round" stroke-width="3"/>
      <path id="패스_1555" data-name="패스 1555" d="M1.5,164.276v7.971c0,2.815,5.251,5.1,11.726,5.1s11.725-2.282,11.725-5.1v-7.971" fill="#fff"/>
      <path id="패스_1556" data-name="패스 1556" d="M1.5,164.276v7.971c0,2.815,5.251,5.1,11.726,5.1s11.725-2.282,11.725-5.1v-7.971" fill="none" stroke="#210c06" stroke-linecap="round" stroke-linejoin="round" stroke-width="3"/>
      <path id="패스_1557" data-name="패스 1557" d="M1.5,154.841v7.971c0,2.815,5.251,5.1,11.726,5.1s11.725-2.282,11.725-5.1v-7.971" fill="#fff"/>
      <path id="패스_1558" data-name="패스 1558" d="M1.5,154.841v7.971c0,2.815,5.251,5.1,11.726,5.1s11.725-2.282,11.725-5.1v-7.971" fill="none" stroke="#f26f1d" stroke-linecap="round" stroke-linejoin="round" stroke-width="3"/>
      <path id="패스_1559" data-name="패스 1559" d="M24.952,154.246c0,2.816-5.25,5.1-11.725,5.1S1.5,157.057,1.5,154.246s5.251-5.1,11.726-5.1,11.726,2.281,11.726,5.1" fill="#fff"/>
      <path id="패스_1560" data-name="패스 1560" d="M24.952,154.246c0,2.816-5.25,5.1-11.725,5.1S1.5,157.057,1.5,154.246s5.251-5.1,11.726-5.1S24.952,151.427,24.952,154.246Z" fill="none" stroke="#f26f1d" stroke-linecap="round" stroke-linejoin="round" stroke-width="3"/>
    </g>
  </g>
</svg>
