<svg id="구성_요소_95_1" data-name="구성 요소 95 – 1" xmlns="http://www.w3.org/2000/svg" width="80.279" height="20.898" viewBox="0 0 80.279 20.898">
  <g id="그룹_950" data-name="그룹 950" transform="translate(25.438)">
    <path id="패스_27" data-name="패스 27" d="M389.18,25.34v-4.7h7.342V11.467H386.243V14.4h7.342v3.3h-7.342v9.243a1.33,1.33,0,0,0,1.33,1.33h9.882V25.34H389.18Z" transform="translate(-368.262 -10.178)" fill="#ec5025"/>
    <path id="패스_28" data-name="패스 28" d="M510.008,0h-2.937V19.568a1.33,1.33,0,0,0,1.33,1.33h1.607V11.353h2.937V8.417h-2.937Z" transform="translate(-475.508)" fill="#ec5025"/>
    <path id="패스_29" data-name="패스 29" d="M581.458,28.139V25.218h6.057V22.281H575.585v-2.47h11.931V11.467H572.648V14.4h11.931v2.47H572.648v7.014a1.33,1.33,0,0,0,1.33,1.33h4.544v2.921H572.1v1.607a1.33,1.33,0,0,0,1.33,1.33h14.64V28.139Z" transform="translate(-533.226 -10.178)" fill="#ec5025"/>
    <path id="패스_30" data-name="패스 30" d="M226.278,83.792H232.7v.734h-5.875v2.386h11.748v.734H226.829v2.386h0v.734h0v1.056a1.33,1.33,0,0,0,1.33,1.33h13.355V90.767H229.766v-.734h11.747V88.381h0V86.729h0v-2.2H235.64v-.734h6.424V81.406H226.278Z" transform="translate(-226.278 -72.256)" fill="#ec5025"/>
    <path id="패스_31" data-name="패스 31" d="M232.377,4.285a1.715,1.715,0,0,0-.467,1.191v.561a1.714,1.714,0,0,0,.467,1.191,3.594,3.594,0,0,0,1.319.864,8.776,8.776,0,0,0,2.078.525,19.508,19.508,0,0,0,2.744.175,19.508,19.508,0,0,0,2.744-.175,8.781,8.781,0,0,0,2.078-.525,3.6,3.6,0,0,0,1.319-.864,1.715,1.715,0,0,0,.467-1.191V5.476a1.717,1.717,0,0,0-.467-1.191,3,3,0,0,0-.649-.526h1.851V1.373h-5.874V0H237.05V1.373h-5.874V3.759h1.851A2.992,2.992,0,0,0,232.377,4.285Zm9.854,1.541q0,.4-.946.642a11.762,11.762,0,0,1-2.767.245,11.76,11.76,0,0,1-2.767-.245q-.946-.245-.946-.642v-.14q0-.4.946-.642a15.736,15.736,0,0,1,5.534,0q.946.245.946.642Z" transform="translate(-230.625)" fill="#ec5025"/>
  </g>
  <path id="패스_32" data-name="패스 32" d="M20.666,0H16.074L0,16.484l12.466.117,3.608,4.271v.015h.013l.009.011.013-.011h4.557ZM13.627,15.62l-.45-.532-.7-.007L3.572,15l12.5-12.82v16.34Z" fill="#ec5025"/>
</svg>
